<svg id="Layer_1" data-name="Layer 1" xmlns="http://www.w3.org/2000/svg" viewBox="0 0 541 464"><defs><style>.cls-1{fill:#ec1f24;}.cls-2{fill:#f16722;}.cls-3{fill:#fdcc08;}</style></defs><title>pyro-horizontal-color</title><path class="cls-1" d="M104.96244,7.03589q60.01155.08427,120.0144.03782a83.846,83.846,0,0,1,17.75944,1.88423c2.71033.61915,6.13931.79439,6.73911,4.69551a129.72064,129.72064,0,0,0-19.64557.0369c-22.83548,1.372-39.82636,16.577-39.90364,39.48368-.20468,60.64225-.94681,121.30289.25815,181.92173.67038,33.72531-14.53746,56.78085-41.6256,73.58966-21.17161,13.13745-44.21213,19.69735-69.23868,14.06747-27.14383-6.10617-39.59862-29.65-29.31286-55.50519,10.1326-25.47021,30.02707-41.1018,54.605-51.34056,12.48816-5.20236,24.7574-10.36636,34.1127-20.81379,17.41724-19.4506,24.04312-42.6944,24.36438-68.09021.31259-24.71184.08813-49.43079.06154-74.14663-.02107-19.53488-13.10564-35.73693-32.369-38.40029-17.718-2.44971-35.0616-.517-50.60113,9.553A39.90515,39.90515,0,0,0,72.47924,30.164c-5.30043,5.74419-4.77943,7.957,2.15178,11.78981,18.59152,10.28056,28.03665,31.43093,23.497,52.61635-4.23,19.74046-22.05829,35.21728-42.61488,36.99469-20.49429,1.772-40.78641-10.32521-48.55129-28.94381-9.17354-21.99635.60059-55.646,20.87176-71.80008,16.61428-13.24,36.04532-19.48023,56.65677-22.81745"/><path class="cls-2" d="M306.807,7.05856c31.7352.02129,63.31207-.82738,95.04727-.84868,1.741-.00116,2.79385.07639,5.31573.07636h4.58783c2.60843,2.0664,6.19638,2.103,8.77716,4.1893,2.97434,2.40435,5.914,3.18219,2.24677,4.04949-9.0333-.86649-21.19507.73756-29.43,5.0872C381.479,25.88342,375.38812,35.761,374.38034,48.98473q-.05814.76225-.05984,1.52777c-.0832,77.47593-.20713,154.95237.08471,232.42746.07694,20.43015,16.5632,35.64872,37.12119,35.82541,2.29-.12564,9.55307-.72357,11.83709-.51629,4.26255,1.09607-.94064,2.6976-4.95236,5.50387-3.95514,2.7667-8.72513,2.434-13.22952,2.83438-3.78992.33686-7.62589-.064-11.43842.169a106.61141,106.61141,0,0,1-15.58545-1.03748c-20.47772,2.66941-39.20648-3.09121-56.19662-13.18322-24.73166-14.69031-37.08133-36.90662-36.44559-65.95682-.17141-3.29176-.49041-6.58341-.49218-9.87532-.03086-57.00028.049-114.0007-.05564-171.00079-.04687-25.60589-14.076-45.08146-35.49231-52.04931-7.11542-3.80773-15.10383-4.902-22.77664-6.56323"/><path class="cls-3" d="M524.889,96.59636C511.84042,46.863,479.378,16.84329,427.9881,8.30123c-3.36435-.55921-2.90851-.89043-9.77353-1.62242-1.5206-.16212-6.45657-.39254-6.45657-.39254h0c17.21545,8.30992,27.83728,27.3782,27.97763,46.5287q.83458,113.87269.03051,227.74352c-.09127,14.45847-6.18722,29.02189-19.76568,36.57334l-26.25714,9.62457c20.95251.66345,41.71029.534,60.95758-9.83069,31.49984-16.96261,52.24106-43.31512,65.47467-75.77913C539.52731,193.67448,537.5751,144.948,524.889,96.59636Z"/><path class="cls-3" d="M328.12289,458.17388c-23.9104-.08291-47.82122-.117-71.73062-.31924-2.59018-.02185-5.62327,1.35614-7.7865-1.40979,17.59381-3.29386,26.70874-15.33576,32.03464-31.192,4.09457-12.19037,4.94489-24.83923,4.94687-37.57983q.0103-66.86916.00723-133.7383c.001-2.79254-.2475-5.585-.13669-8.37709,1.20676,13.77521,4.87348,26.99792,12.09583,38.92361,14.254,23.53635,36.7886,33.94489,62.63342,38.81528,5.9325,1.118,11.979,1.6312,17.97077,2.4223-4.59809.83863-3.21805,4.50525-3.253,7.27131-.26331,20.79849-.37357,41.59884-.60941,62.39779a101.21781,101.21781,0,0,1-5.2214,31.36261C362.20316,447.12325,349.66128,456.68139,328.12289,458.17388Z"/></svg>