<svg id="Layer_1" data-name="Layer 1" xmlns="http://www.w3.org/2000/svg" viewBox="0 0 541 464"><defs><style>.cls-1{fill:#fff;}</style></defs><title>pyro-horizontal-white</title><path class="cls-1" d="M285.45715,245.61212c-.0686,1.80322.00849,3.60669.07233,5.41016.01062.42724.02008.8551.03656,1.27917.01428.54444.02863,1.08887.02844,1.6333q.00312,66.86911-.0072,133.73828c-.002,12.74061-.85229,25.38947-4.9469,37.57984-5.32587,15.8562-14.4408,27.89813-32.03461,31.192,2.16321,2.76593,5.19629,1.38794,7.7865,1.40979,23.90937.20227,47.82019.23633,71.73059.31928,21.53839-1.49249,34.08026-11.05066,40.95118-31.42334a101.217,101.217,0,0,0,5.22137-31.36261c.23584-20.79895.34613-41.5993.60944-62.39783.03491-2.766-1.345-6.43237,3.25262-7.27124h.00024a106.61724,106.61724,0,0,0,15.58545,1.03748h.00031l-.00018.00006c20.95251.66345,41.71032.534,60.95758-9.83069,31.49987-16.96265,52.24109-43.31512,65.47467-75.77911,19.35174-47.47211,17.39953-96.19867,4.71344-144.55024C511.84039,46.863,479.37793,16.84326,427.9881,8.30121c-3.36438-.55921-2.90851-.89038-9.77356-1.62238-1.52057-.16217-6.45654-.39258-6.45654-.39258,1.00146.4834,1.97821,1.00678,2.93426,1.56092a10.77123,10.77123,0,0,1-2.93439-1.56092H407.17c-2.52191,0-3.57476-.07751-5.31573-.07635-31.73523.0213-63.31207.86993-95.0473.84863l-80.10828.03162.02435.00513c-.58191-.01154-1.16394-.02216-1.74627-.02155q-60.00285.04643-120.01435-.03784l-20.4721.96765C63.87891,11.34076,44.44788,17.58093,27.83362,30.821,7.56244,46.975-2.21167,80.62469,6.96185,102.621c7.7649,18.61859,28.057,30.71582,48.55127,28.94385C76.0697,129.78748,93.898,114.31061,98.128,94.57019,102.66766,73.38477,93.22253,52.23438,74.631,41.9538c-6.93121-3.83277-7.45221-6.0456-2.15179-11.7898a39.90749,39.90749,0,0,1,7.70141-6.15478c15.53955-10.07,32.88312-12.00269,50.60114-9.553,19.26337,2.66333,32.348,18.86542,32.369,38.40027.02661,24.71582.251,49.43481-.06153,74.1466-.32128,25.39582-6.94714,48.63965-24.36438,68.09021-9.35534,10.44745-21.62457,15.61145-34.11273,20.81385-24.57794,10.2387-44.47241,25.8703-54.605,51.34051-10.28576,25.85523,2.169,49.399,29.31287,55.50519,25.02655,5.62988,48.067-.93,69.23865-14.06745,27.08813-16.80883,42.296-39.86438,41.62561-73.58966-1.205-60.61883-.46283-121.27948-.25818-181.92175.07733-22.90668,17.06817-38.11169,39.90368-39.48364a129.71412,129.71412,0,0,1,19.64557-.03693v-.00006h0c21.41632,6.96784,35.44544,26.44342,35.49231,52.04932m154.7984,214.85577c-.09124,14.4585-6.18719,29.02191-19.76568,36.57337l-3.58216,1.313c-2.02087.12658-3.91217.26672-4.8919.32049-20.558-.1767-37.04425-15.39526-37.12116-35.82544-.29187-77.4751-.16791-154.95154-.08471-232.42743q.00174-.76555.05981-1.52777c1.00781-13.22375,7.09869-23.10132,18.9715-29.3725,8.23492-4.34967,20.39666-5.95373,29.43-5.08722.22119-.0523.41583-.1043.59039-.15631A54.32359,54.32359,0,0,1,439.7356,52.81494Q440.57019,166.68768,439.76611,280.55847Z"/></svg>